# xmcd CD database file generated by Grip 3.2.0
# 
# Track frame offsets:
#       150
#       80600
#       193575
# 
# Disc length: 3590 seconds
# 
# Revision: 1
# Processed by: cddbd v1.5.1PL2 Copyright (c) Steve Scherf et al.
# Submitted via: Grip 3.2.0
# 
DISCID=1e0e0403
DTITLE=John Coltrane - Stockholm '62 The complete second concert Vol. 2
DYEAR=1962
DGENRE=Jazz
TTITLE0=Mr PC
TTITLE1=My Favorite Things
TTITLE2=Traneing in
EXTD=YEAR: 1962
EXTT0=
EXTT1=
EXTT2=
PLAYORDER=
